<?xml version="1.0" encoding="utf-8"?>
<!-- Generator: Adobe Illustrator 22.0.1, SVG Export Plug-In . SVG Version: 6.00 Build 0)  -->
<svg version="1.1" id="レイヤー_1" xmlns="http://www.w3.org/2000/svg" xmlns:xlink="http://www.w3.org/1999/xlink" x="0px"
	 y="0px" viewBox="0 0 1280 1024" style="enable-background:new 0 0 1280 1024;" xml:space="preserve">
<style type="text/css">
	.st0{fill:#003F27;}
	.st1{fill:none;stroke:#FFFFFF;stroke-width:3;stroke-linecap:round;stroke-linejoin:round;}
	.st2{fill:none;stroke:#FFFFFF;}
</style>
<rect x="55.5" y="341.5" width="1186" height="504"/>
<rect x="65" y="357" class="st0" width="1167" height="473"/>
<g>
	<g>
		<g>
			<path class="st1" d="M190.5,648.9c0.2,0.1,5.6-19,5.8-18.9c0.3,0.1,1.7,13.1,2,13.2c0,0,2.7-9,2.7-8.9"/>
			<path class="st1" d="M192.5,619.7c0.6,0.2,10-34.9,10.6-34.7c0.8,0.2-8,30.3-7.1,30.6c0.3,0.1,5-17.3,5.3-17.2"/>
			<path class="st1" d="M191.6,582.2c0.5,0.1,8.1-28.1,8.6-28c0.4,0.1-5.3,20.9-4.9,21c0.2,0.1,4.7-16.1,4.9-16"/>
			<path class="st1" d="M160.8,651.7c0.1,0,3.1-10.3,3.1-10.2c0.4,0.1-3,16-2.6,16.1c0.3,0.1,5.2-17.9,5.4-17.8
				c0.6,0.2-2.4,21.7-1.8,21.9c0.4,0.1,7.4-25.7,7.8-25.6c0.6,0.2-6.7,25.5-6.1,25.6c1.8,0.6,23.3-84.2,25.5-83.5
				c1.8,0.5-22,83.1-19.9,83.7c2,0.6,22.7-81.4,24.7-80.7c1.6,0.5-26.4,80-24.1,80.8c2,0.6,22.5-81.1,24.6-80.4
				c2.2,0.7-24.9,78.4-22.9,79c2.1,0.6,22-78.9,23.9-78.3c1.8,0.6-17.6,72-16,72.5c0.7,0.2,10.6-36.7,11.2-36.5
				c0.9,0.3-9.6,39.7-8.8,39.9c0.6,0.2,8.7-30.2,9.2-30c0.9,0.3-7.5,33.2-6.7,33.4c0.2,0.1,5-17.5,5.3-17.4"/>
			<path class="st1" d="M160.9,623.3c0.1,0,3.1-10.4,3.2-10.4c0.3,0.1-3.4,10.5-3.2,10.6c0.1,0,3.2-10.7,3.3-10.6
				c0.4,0.1-1.3,16.7-1,16.8c0.3,0.1,6-20.6,6.3-20.6c0.6,0.2,1.4,26.2,2,26.4c1.6,0.5,24.8-88.1,26.8-87.5
				c1.9,0.6-28.5,92-26.2,92.7c2.2,0.7,25.1-91,27.6-90.2"/>
			<path class="st1" d="M191.2,542.1c0.3,0.1,5.5-19.1,5.8-19c0.3,0.1-0.7,13.8-0.4,13.9c0,0,2.9-9.6,2.9-9.6"/>
			<path class="st1" d="M192.4,526.1c0,0,2.6-8.7,2.7-8.7c0.3,0.1,2.1,11.9,2.4,12c0.1,0,3.9-13.1,4-13.1c0.3,0.1-2.1,14.4-1.8,14.5
				c0.2,0.1,4.5-15.5,4.7-15.4c0.5,0.1,0,18,0.4,18.1c0.3,0.1,5.9-20.2,6.2-20.2c0.6,0.2-2.3,21.5-1.8,21.7c0.4,0.1,6.7-23.1,7-23
				c0.4,0.1,0.1,16.5,0.4,16.6c0.1,0,3.7-12.4,3.8-12.4c0.3,0.1,3.1,11.1,3.3,11.1c0.2,0,4.4-15.2,4.6-15.1
				c0.3,0.1,5.2,12.5,5.5,12.6c0.1,0,3.3-11.1,3.4-11.1c0.3,0.1,2.9,12.8,3.2,12.9c0.1,0,4.1-14,4.3-14c0.3,0.1-4.2,14.2-3.9,14.3
				c0.2,0,4.3-14.5,4.4-14.5c0.5,0.2,0.7,19.1,1.1,19.3c0,0,2.7-8.8,2.7-8.8"/>
			<path class="st1" d="M163.9,579.5c0.2,0.1,4.7-15.9,4.9-15.9c0.5,0.2-2.8,19.8-2.2,20c1.7,0.5,20.3-72.3,21.9-71.8
				c1.7,0.5-22.7,73.2-20.6,73.8c1.7,0.5,20.6-72.7,22.1-72.3c2.2,0.7-24.8,85.5-22.5,86.3c2.2,0.7,23.4-83.7,25.4-83.1
				c2.7,0.8-25.2,95.7-22.6,96.5c1.6,0.5,21.1-75,22.8-74.5"/>
			<path class="st1" d="M163.9,536.8c0.1,0,3.2-10.6,3.2-10.6c0.3,0.1-2.4,12.1-2.1,12.2c0.3,0.1,5-16.9,5.1-16.8
				c0.4,0.1-4.7,17.9-4.3,18c0.4,0.1,6.2-21.4,6.5-21.3c0.5,0.2-5.7,23-5.2,23.2c0.6,0.2,8.7-30,9.1-29.9c0.9,0.3-9.4,30.5-8.6,30.7
				c0.5,0.2,8.8-30.9,9.4-30.7c1,0.3-7,37-6.2,37.3c0.8,0.2,10.7-38.4,11.7-38.1c1.1,0.3-13.2,49.9-11.9,50.3
				c1.2,0.4,14.5-51.7,15.7-51.3c1.3,0.4-16.8,51.6-15.7,51.9c1.3,0.4,14.8-52.3,15.9-52"/>
			<path class="st1" d="M115.4,519.2c0,0,2.5-8.2,2.5-8.2c0.4,0.1,4.2,16.7,4.7,16.8c0.2,0.1,4.7-16,4.9-16c0.3,0.1-5,16.4-4.6,16.5
				c0.2,0.1,4.7-16.3,5-16.2c0.5,0.1,2.6,22.8,3.2,23c0.3,0.1,5.5-19,5.8-19c0.4,0.1-1.1,15.7-0.8,15.8c0.3,0.1,6.2-21.8,6.6-21.6
				c0.6,0.2,2.1,24.9,2.6,25.1c0.3,0.1,5.4-18.6,5.7-18.5c0.4,0.1-4,17.2-3.5,17.3c0.2,0.1,5.1-17.4,5.3-17.3
				c0.4,0.1-2.9,15.2-2.6,15.3c0.2,0.1,4.5-15.4,4.7-15.3c0.3,0.1-4.5,14.8-4.1,14.9c0.2,0.1,4.4-15,4.6-14.9
				c0.3,0.1,2.2,12,2.5,12.1c0.1,0,3.3-11.3,3.4-11.3c0.3,0.1,7.9,7.1,8.2,7.2c0.1,0,3.9-13.4,4.1-13.3c0.3,0.1-3.4,12.9-3.2,13
				c0.1,0,3.8-13,4-13"/>
			<path class="st1" d="M299.4,553.3c0,0,2.4-8,2.5-8c0.2,0.1-2.1,8.5-1.9,8.6c0,0,2.5-8.4,2.6-8.4c0.2,0.1-0.9,8.7-0.7,8.7
				c0,0,2.5-8.2,2.5-8.2"/>
			<path class="st1" d="M330.4,601.7c0.2,0.1,4.8-16.3,5-16.3c0.3,0.1-1.7,12.6-1.4,12.7c0.1,0,2.9-9.7,3-9.7"/>
			<path class="st1" d="M303,555.4c0,0,2.7-8.9,2.7-8.9c0.4,0.1,1,17,1.5,17.2c0.3,0.1,4.8-16.5,5-16.4c0.5,0.2,0.1,18.7,0.6,18.8
				c0.2,0.1,4.9-16.7,5.1-16.6c0.5,0.1-2,23.6-1.4,23.8c0.3,0.1,6-20.8,6.3-20.7c0.6,0.2-5.3,27.4-4.7,27.6
				c0.5,0.1,7.1-24.7,7.5-24.6"/>
			<path class="st1" d="M309.1,612.5c0.1,0,3.7-12.6,3.8-12.5c0.4,0.1-3.6,18-3.3,18.2c1.3,0.4,17-61,18.5-60.5
				c1.6,0.5-20.2,60.7-18.4,61.2c1.1,0.3,17.3-61.5,18.7-61.1"/>
			<path class="st1" d="M278.7,559.2c0.1,0,3.1-10.4,3.2-10.4c0.2,0.1,4.7,10.8,5,10.9c0.2,0.1,5.5-19.2,5.9-19.1
				c0.3,0.1-0.8,12.6-0.5,12.7c0.1,0,3.8-13,4-13c0.2,0.1,1.4,12,1.7,12.1c0,0,2.4-8,2.5-8"/>
			<path class="st1" d="M268.8,588.3c0.9,0.3,11-39.3,11.9-39c0.8,0.3-8.5,34.1-7.6,34.3c0.4,0.1,6.9-24,7.3-23.9"/>
			<path class="st1" d="M253.2,604.7c0.1,0,3.5-11.7,3.6-11.6c0.4,0.1-0.7,13.7-0.4,13.8c1.3,0.4,16.1-57.2,17.4-56.8
				c1.3,0.4-17.4,57.4-15.8,57.9c1.3,0.4,16.4-57.8,17.6-57.4c1.5,0.5-16.2,60-14.6,60.5c1.6,0.5,17.3-61.8,18.8-61.4
				c1.9,0.6-14.6,67.5-12.7,68.1c0.3,0.1,5.3-18.4,5.6-18.3c0.5,0.2-5.9,18.3-5.5,18.4c0.3,0.1,5.4-18.3,5.6-18.3
				c0.7,0.2-2.5,23-2,23.2c0.3,0.1,5.1-17.3,5.3-17.2c0.5,0.2-0.3,21.7,0.2,21.9c0.3,0.1,5.3-18.4,5.6-18.3
				c0.5,0.1-1.7,19.9-1.2,20.1c0.2,0.1,5.1-17.7,5.4-17.6c0.4,0.1-0.3,18.6,0.1,18.7c0.2,0.1,4.8-16.3,5-16.3
				c0.4,0.1,4.1,15.7,4.5,15.8c0.2,0,4.2-14.2,4.3-14.1c0.2,0.1,5.5,9.6,5.8,9.7c0.1,0,3.4-11.3,3.5-11.3c0.3,0.1,3.7,11.2,4,11.3
				c1.4,0.4,18.3-65.3,19.8-64.8c1.4,0.4-16.8,62.8-15.1,63.3c1.2,0.4,14.9-53.1,16.1-52.7c1.1,0.3-9.7,46.4-8.6,46.7
				c0.1,0,4.2-14.1,4.3-14.1"/>
			<path class="st1" d="M255.6,569.1c0.1,0,3.6-12.1,3.7-12.1c0.3,0.1-3.3,14.7-2.9,14.8c0.3,0.1,5.6-19.3,5.9-19.2
				c0.5,0.1-5.7,21.1-5.3,21.2c0.4,0.1,6.6-22.6,6.9-22.5c0.5,0.2-7,23.7-6.5,23.9c0.4,0.1,7.2-24.8,7.6-24.7"/>
			<path class="st1" d="M250.9,582.7c0,0,2.7-9,2.8-9c0.5,0.1,2.7,19.5,3.3,19.7c0.8,0.2,12.6-44.4,13.5-44.1"/>
			<path class="st1" d="M421.8,597.8c0.2,0.1,4.7-16.1,4.9-16c0.3,0.1-4,14.3-3.7,14.4c0.1,0,3.9-13.2,4-13.1
				c0.2,0.1-3.2,11.7-3,11.8c0.1,0,3.2-10.8,3.3-10.7"/>
			<path class="st1" d="M425.2,582.4c0.1,0,3.5-11.8,3.6-11.8c0.3,0.1-3.8,11.5-3.5,11.6c0.1,0,3.4-11.6,3.5-11.6"/>
			<path class="st1" d="M415.1,606.2c0.2,0.1,4.9-16.7,5.1-16.6c0.6,0.2-0.4,21.3,0.2,21.5c0.2,0.1,4.6-15.9,4.8-15.9
				c0.3,0.1-1.4,12-1.1,12.1c0.1,0,2.9-9.6,2.9-9.5"/>
			<path class="st1" d="M415.7,586.5c0.1,0,3.1-10.4,3.2-10.4c0.3,0.1-0.1,14.2,0.1,14.3c0.3,0.1,6.5-22.7,6.9-22.6
				c0.7,0.2-6.3,23.9-5.6,24.1c0.4,0.1,6.5-22.9,7-22.8"/>
			<path class="st1" d="M421.5,570.3c0.2,0.1,4.9-16.9,5.2-16.9c0.3,0.1-3,13.5-2.7,13.6c0.1,0,3.2-11,3.3-10.9"/>
			<path class="st1" d="M415.9,544.8c0,0,2.8-9.3,2.9-9.3c0.3,0.1-3.1,9.5-2.8,9.5c0.1,0,2.9-9.5,2.9-9.5c0.5,0.2-3.1,21.9-2.6,22.1
				c0.3,0.1,5.9-20.2,6.2-20.1c0.9,0.3-3.4,38.6-2.5,38.9c0.1,0,3.3-11.2,3.4-11.2"/>
			<path class="st1" d="M345.9,607.9c0.1,0,3-9.9,3-9.9c0.3,0.1,1.2,14.7,1.5,14.8c1.2,0.4,16.6-58.1,17.7-57.7
				c1.4,0.4-17.3,59.9-15.8,60.3c1.1,0.3,14.4-51.1,15.5-50.8c1.6,0.5-12.9,57.1-11.6,57.5c0.5,0.2,9-31.3,9.5-31.2
				c1,0.3-7.1,35.7-6.1,36c0.4,0.1,7.1-24.6,7.5-24.4c0.8,0.3-4.5,30.3-3.9,30.5c0.5,0.1,7.2-25,7.6-24.9c0.7,0.2-2.4,27.9-1.8,28.1
				c0.3,0.1,6.2-21.9,6.6-21.7c0.5,0.2,1.4,24,2,24.2c0.2,0.1,4.7-16.1,4.9-16c0.3,0.1,3.1,12.3,3.3,12.4c0.1,0,3.7-12.6,3.8-12.6
				c0.2,0.1-3.3,11.7-3.1,11.7c0.1,0,3.5-11.8,3.6-11.8c0.3,0.1,5,11.9,5.2,11.9c0.2,0.1,4.7-16,4.9-16c0.5,0.1,2.7,16.7,3.1,16.8
				c0.4,0.1,6.5-22.6,6.9-22.4c0.4,0.1-6.1,22.1-5.6,22.3c0.4,0.1,6.7-23.3,7.1-23.2c0.6,0.2-6.7,22.6-6,22.8
				c0.4,0.1,6.8-23.7,7.2-23.5c0.4,0.1,3.1,16.4,3.5,16.6c0.1,0,3.7-12.7,3.9-12.6"/>
			<path class="st1" d="M344.9,586c0,0,2.8-9.3,2.8-9.3c0.3,0.1-0.1,11.7,0.2,11.8c0.3,0.1,5-17.4,5.3-17.3
				c0.4,0.1-4.3,18.4-3.8,18.6c1.2,0.4,15-52.7,16-52.4c1.4,0.4-14.7,55.3-13.1,55.8c1.2,0.4,14-49.9,15.2-49.6
				c1.5,0.5-16.8,51.2-15.4,51.7c1,0.3,14.4-50.8,15.4-50.5"/>
			<path class="st1" d="M351,548.2c0.1,0,3.4-11.4,3.5-11.4c0.3,0.1-3.2,13.2-2.8,13.4c0.3,0.1,4.9-16.7,5.1-16.6"/>
			<path class="st1" d="M343.8,562.1c0.1,0,3.7-12.4,3.8-12.3c0.6,0.2,0.9,26.8,1.6,27c0.8,0.2,12.4-43.7,13.3-43.5
				c0.9,0.3-13.9,43.5-12.9,43.8c0.7,0.2,12.3-43.8,13.3-43.5c0.9,0.3-13.4,44.2-12.3,44.5c0.8,0.2,12.3-43.5,13.2-43.2"/>
			<path class="st1" d="M460.7,608.2c0.3,0.1,5.9-20.2,6.2-20.1c0.4,0.1-5.4,18-4.9,18.1c0.2,0.1,4.7-16.1,4.9-16"/>
			<path class="st1" d="M520,563.6c0.2,0.1,5.2-17.8,5.4-17.7c0.4,0.1-3.8,14.6-3.4,14.8c0.1,0,3.5-11.8,3.6-11.8"/>
			<path class="st1" d="M513.4,580.4c0.7,0.2,10.8-37.7,11.5-37.5c0.7,0.2-7.3,36.1-6.6,36.3c0.2,0.1,5.2-17.9,5.5-17.9
				c0.4,0.1-1,13.3-0.6,13.4c0.1,0,3.1-10.3,3.2-10.3"/>
			<path class="st1" d="M495.7,589.9c1.3,0.4,16.3-57.6,17.5-57.2c1.3,0.4-16,55.6-14.8,56c1.2,0.4,15.2-54.3,16.5-53.9
				c1.4,0.4-12.6,51.9-11.1,52.3c0.8,0.2,13.3-47.2,14.3-46.9c1.2,0.4-13.8,47.1-12.8,47.4c0.9,0.3,13.1-47.1,14.3-46.8
				c1,0.3-10.8,47.8-9.7,48.2c1,0.3,13.1-46.7,14.2-46.3"/>
			<path class="st1" d="M460.6,544.5c0,0,2.4-7.9,2.4-7.9C463.2,536.7,460.5,544.5,460.6,544.5c0.1,0,2.5-7.8,2.5-7.8
				c0.2,0.1,1.1,9.2,1.3,9.3c0,0,2.8-9.2,2.8-9.2c0.3,0.1,6.2,11.6,6.5,11.7c0.2,0.1,4.8-16.3,5-16.2c0.4,0.1,3.2,17.2,3.6,17.3
				c0.2,0,3.9-13.5,4.1-13.5c0.4,0.1,1.1,13.8,1.5,13.9c0.2,0,4-13.7,4.2-13.6c0.3,0.1,5.3,14.2,5.7,14.3c0.2,0.1,5-17,5.2-16.9
				c0.7,0.2-4.5,24.6-3.8,24.8c0.5,0.2,7.1-25.1,7.6-24.9c0.6,0.2-8.1,28.4-7.6,28.6c0.6,0.2,8.2-28.9,8.8-28.8
				c0.8,0.3-9.5,29.3-8.8,29.5c0.5,0.2,8.6-29.7,9-29.5c1,0.3-11.2,42-10.2,42.3c1,0.3,12.3-42.9,13-42.7"/>
			<path class="st1" d="M464.7,592.3c0.3,0.1,5.2-18.1,5.5-18c0.3,0.1,3.2,15.3,3.6,15.4c0,0,3-9.9,3-9.9c0.2,0.1,0.8,8,0.9,8
				c0.1,0,3.1-10.3,3.2-10.3c0.5,0.1-0.3,24.7,0.4,24.9c0.4,0.1,6.9-24.4,7.4-24.2c0.5,0.2-7.1,26.3-6.4,26.5
				c0.5,0.1,7.5-25.8,7.8-25.6c0.7,0.2-8.1,26-7.6,26.1c0.5,0.1,7.5-26.1,7.9-25.9c0.8,0.2-3.3,34.7-2.3,35
				c0.6,0.2,8.8-30.9,9.4-30.7c0.9,0.3-9,31.5-8.4,31.7c0.5,0.2,8.5-30.2,9.2-30c1,0.3-2.1,35-1.4,35.2c0.6,0.2,8.3-28.7,8.7-28.6
				c1.1,0.3-7.1,37.7-6,38c0.6,0.2,9.9-34.6,10.5-34.4c0.8,0.3-4.8,39.9-3.9,40.1c0.6,0.2,9.3-32.9,10-32.6c0.9,0.3-4.9,38.6-4,38.8
				c0.3,0.1,7.1-25.1,7.6-24.9c0.5,0.1-0.9,18.9-0.5,19c0.2,0.1,4.3-14.7,4.5-14.7c0.4,0.1,2.7,16.1,3.1,16.2c0.1,0,2.9-9.7,3-9.7
				c0.2,0.1-0.4,10.9-0.2,11c0,0,2.4-8,2.5-8"/>
			<path class="st1" d="M459.1,575.7c0.3,0.1,5.2-18,5.5-17.9c0.3,0.1-1.1,12.6-0.8,12.7c0,0,2.9-9.7,3-9.7"/>
			<path class="st1" d="M437.5,621.3c0.1,0,3.7-12.4,3.8-12.3c0.6,0.2-3.6,22.3-3,22.4c0.5,0.2,7.7-26.9,8.2-26.8
				c0.6,0.2-7.4,27.7-6.6,27.9c1.9,0.6,21.8-77,23.4-76.5c2,0.6-22.4,78.2-20.2,78.9c1.5,0.4,16.2-57.6,17.5-57.2
				c1.8,0.5-13.3,63.6-11.5,64.1c1.2,0.4,16.2-57.4,17.4-57c1.5,0.5-18.4,56.4-17.3,56.8c1.3,0.4,16.2-56.9,17.3-56.5
				c1.4,0.4-11,48.7-9.9,49.1c0.3,0.1,5-17.2,5.2-17.2c0.3,0.1,1.8,14.9,2.2,15c0,0,2.7-9,2.8-9"/>
			<path class="st1" d="M438.1,591.8c0.1,0,3.2-10.9,3.3-10.9c0.3,0.1-3.5,15.2-3,15.3c0.3,0.1,5.2-17.6,5.4-17.6
				c0.4,0.1-4.9,18.6-4.5,18.7c0.4,0.1,6-20.4,6.2-20.3c0.5,0.2-5.2,21.6-4.8,21.7c1.4,0.4,17.9-62.6,19-62.3
				c1.8,0.5-20.2,62.4-18.4,62.9c1.2,0.4,17.7-63.3,19.2-62.9c1.7,0.5-16.6,66.2-15.2,66.7c1.2,0.4,14.9-53.7,16.3-53.3
				c1.3,0.4-16.9,58.2-15.5,58.6c1.2,0.4,15.1-53.8,16.3-53.5"/>
			<path class="st1" d="M440.3,548.7c0.2,0.1,4.5-15.3,4.7-15.3c0.9,0.3-3,38.2-1.9,38.5c0.6,0.2,10.2-35.9,10.9-35.7
				c0.8,0.2-11.7,36.7-10.8,36.9c0.6,0.2,10.5-37.2,11.3-36.9c0.9,0.3-10.7,44.6-9.6,44.9c0.8,0.3,12.8-45.2,13.7-44.9"/>
			<path class="st1" d="M614.8,593.4c0.3,0.1,5.7-19.8,6-19.7c0.3,0.1-3.8,16-3.4,16.1c0.1,0,3.5-11.7,3.6-11.7"/>
			<path class="st1" d="M613.9,565.3c0.4,0.1,6.4-22.6,6.9-22.5c0.4,0.1-3.6,18-3.1,18.2c0.1,0,3.4-11.3,3.5-11.3"/>
			<path class="st1" d="M600.4,560.6c0,0,3-9.8,3-9.8c0.3,0.1-0.5,13-0.1,13.1c0.3,0.1,5.6-19.5,5.9-19.5c0.5,0.1-5.1,20.9-4.5,21.1
				c0.4,0.1,6.8-23.4,7.1-23.3c0.7,0.2-6.7,28.9-5.9,29.2c0.6,0.2,8.3-29.2,8.9-29.1"/>
			<path class="st1" d="M578.4,582.1c0.2,0.1,4.7-15.9,4.9-15.9c0.2,0.1-2.3,11.9-2,12c0.1,0,3.5-11.6,3.5-11.6
				c0.2,0.1-2.4,11-2.2,11c0.1,0,3.2-10.8,3.3-10.7c0.2,0.1-1.7,10.7-1.4,10.8c0.1,0,3.1-10.4,3.2-10.4c0.3,0.1-2.6,10.3-2.3,10.4
				c0.1,0,3.1-10.2,3.1-10.2c0.3,0.1,1.7,10.7,1.9,10.8c0.1,0,3-10.1,3.1-10.1c0.3,0.1-0.5,11.7-0.2,11.8c0.1,0,3.2-10.7,3.3-10.7
				c0.4,0.1-0.2,14.3,0.1,14.4c0.1,0,3.6-12.2,3.7-12.2c0.3,0.1-2.4,15.4-2.1,15.5c0.1,0,4-13.6,4.2-13.6c0.4,0.1-4.3,15.2-3.9,15.3
				c0.2,0.1,4.4-15.2,4.6-15.1c0.7,0.2,1.3,24.1,1.9,24.3c0.8,0.2,9.8-33.9,10.3-33.7"/>
			<path class="st1" d="M561.1,591.1c0.1,0,3.6-12.2,3.7-12.1c0.7,0.2-0.7,31.4,0.2,31.7c0.8,0.2,12.6-44.6,13.5-44.3
				c0.9,0.3-14.4,45.1-13.4,45.4c0.8,0.2,12.9-45.9,13.9-45.6c1.1,0.3-8.1,55-6.7,55.4c0.4,0.1,7.1-24.8,7.5-24.7
				c0.7,0.2-4.5,26-3.9,26.2c0.2,0.1,4.4-15.3,4.7-15.2c0.4,0.1,5.6,14.1,5.9,14.2c0.1,0,3.2-10.6,3.2-10.6c0.2,0.1-1.6,10-1.3,10.1
				c0.1,0,3.1-10.2,3.1-10.2c0.3,0.1-1,9.5-0.8,9.5c0.1,0,3.2-10.6,3.2-10.6c0.2,0.1-3,10.4-2.8,10.4c0.1,0,3.2-10.7,3.3-10.7
				c0.3,0.1,2.5,11,2.8,11.1c0.3,0.1,5.9-20.6,6.3-20.5c0.6,0.2,2.5,23.7,3.1,23.8c0.6,0.2,9.3-33,10-32.8
				c0.8,0.2-2.9,31.4-2.3,31.6c0.1,0,3.2-10.8,3.3-10.8"/>
			<path class="st1" d="M652.3,595.4c0,0,2.4-8,2.4-8c0.3,0.1,2.6,10.5,2.8,10.6c0.1,0,3.3-10.9,3.3-10.9c0.3,0.1-1,11-0.7,11.1
				c0.5,0.2,7.7-27.1,8.2-26.9c0.7,0.2-2.6,25.8-2,26c0.2,0.1,4.5-15.3,4.7-15.2c0.4,0.1-1.4,13.2-1.1,13.3c0,0,2.8-9.2,2.8-9.2"/>
			<path class="st1" d="M641.8,584.1c0.2,0.1,4.9-16.6,5-16.5c0.3,0.1,0.3,10.7,0.6,10.8c0.1,0,2.9-9.6,2.9-9.6
				c0.2,0.1-1,8.6-0.7,8.7c0,0,2.6-8.6,2.6-8.6c0.2,0.1,0.7,9.7,0.9,9.8c0.1,0,3.4-11.5,3.5-11.5c0.6,0.2,0.8,21.8,1.4,22
				c0.3,0.1,6.1-21,6.4-20.9c0.6,0.2-6.8,20.9-6.3,21c0.4,0.1,6.1-21.1,6.4-21c0.7,0.2-5.8,25-5.2,25.1c0.5,0.1,6.9-23.9,7.3-23.8"
				/>
			<path class="st1" d="M637.5,596.5c0.1,0,3.4-11.5,3.5-11.4c0.2,0.1-2,10.9-1.7,11c0.1,0,3.2-10.7,3.3-10.7
				c0.2,0.1-2.3,10.6-2.1,10.7c0.1,0,3.1-10.5,3.2-10.5c0.2,0.1-1.5,10.3-1.3,10.4c0.1,0,3-10.1,3.1-10.1c0.3,0.1-2.5,10-2.2,10.1
				c0.1,0,3-9.9,3-9.9c0.2,0.1,2.1,9.3,2.3,9.4c0,0,2.6-8.5,2.6-8.5c0.2,0.1-0.9,8.2-0.7,8.2c0,0,2.4-7.9,2.4-7.9"/>
			<path class="st1" d="M626,591.7c0.1,0,3-10.1,3.1-10c0.7,0.2,0.5,27.8,1.3,28.1c0.8,0.2,12.1-42.8,13-42.5
				c0.9,0.3-13.7,42.8-12.7,43.1c0.7,0.2,12.4-43.9,13.3-43.6c1,0.3-7.1,52-5.8,52.4c0.2,0,4.4-15.1,4.6-15c0.4,0.1-1.4,16.5-1,16.6
				c0.1,0,4.1-14.1,4.3-14c0.4,0.1,5.4,14.9,5.7,15c0.2,0,4.1-14,4.3-13.9c0.3,0.1-2.8,13.7-2.5,13.8c0.2,0,4.2-14.3,4.4-14.3
				c0.4,0.1-2.6,14.1-2.2,14.2c0.2,0.1,4.4-14.8,4.5-14.8c0.3,0.1-4.4,14.6-4.1,14.7c0.2,0.1,4.4-14.9,4.5-14.9
				c0.2,0.1,3.6,7.6,3.8,7.7c0.1,0,3.5-11.7,3.6-11.7c0.2,0.1,0.3,9.5,0.5,9.6c0,0,2.7-9,2.8-9"/>
			<path class="st1" d="M809.7,622.1c0.5,0.2,7.8-27.2,8.3-27.1c0.5,0.1-2.2,17.3-1.8,17.4c0.1,0,3.4-11.4,3.5-11.4"/>
			<path class="st1" d="M788.1,639.3c0,0,2.8-9.5,2.9-9.5c0.3,0.1-0.3,11.8,0,11.9c1.8,0.5,21.6-76.8,23.3-76.3
				c2.1,0.6-24,76.8-21.9,77.4c1.4,0.4,18.2-64.7,19.6-64.3c1.9,0.6-19.8,64.6-18.4,65c1,0.3,15.4-55.1,16.7-54.7
				c1.6,0.5-14,56.7-12.5,57.1c1.2,0.4,15.6-54.3,16.5-54c1.5,0.5-16.2,54.4-14.8,54.9c1.3,0.4,15.2-54,16.4-53.6
				c1.5,0.5-11.3,55.5-9.7,55.9c0.2,0.1,4.8-16.5,5-16.4c0.3,0.1,0.8,13.6,1.1,13.7c0,0,2.7-8.8,2.7-8.8"/>
			<path class="st1" d="M808.4,546.3c0.4,0.1,6.9-23.8,7.2-23.7c0.5,0.2-6,21.8-5.3,22c0.4,0.1,6.5-22.7,6.9-22.5
				c0.6,0.2-6.1,21.1-5.5,21.3c0.4,0.1,6.3-21.8,6.6-21.7c0.5,0.2-4.6,19.3-4.1,19.5c0.1,0,3.7-12.4,3.8-12.4"/>
			<path class="st1" d="M787.4,608.1c0.2,0.1,5.2-17.8,5.4-17.7c0.9,0.3-1.4,33.7-0.7,33.9c1.4,0.4,21-74.4,22.6-73.9
				c1.9,0.6-24,73.8-22.4,74.2c1.9,0.6,20.6-74.5,22.6-73.9c1.9,0.6-23.7,78.8-21.4,79.5c1.5,0.5,20-71.4,21.7-70.9"/>
			<path class="st1" d="M790.6,534.5c0,0,2.5-8.4,2.6-8.4c0.4,0.1,0.5,13.5,0.7,13.5c0.1,0,3.8-13,4-12.9"/>
			<path class="st1" d="M785.6,549c0.1,0,2.9-9.8,3-9.7c0.4,0.1-0.7,17.9-0.3,18c0.4,0.1,6.8-23.5,7.2-23.4c0.6,0.2-6.5,27-5.8,27.2
				c0.6,0.2,9.8-34.4,10.5-34.2"/>
			<path class="st1" d="M786,570.1c0.1,0,3.2-10.6,3.2-10.6c0.3,0.1-1.2,12.5-0.9,12.6c0.8,0.2,12.9-45.9,13.9-45.6
				c1.1,0.3-10.3,49.4-9,49.8c1,0.3,14.8-51.6,15.7-51.3"/>
			<path class="st1" d="M741.8,587c0,0,2.6-8.5,2.6-8.5c0.2,0.1-2.1,8.4-1.9,8.5c0,0,2.8-9.3,2.8-9.3c0.2,0.1,4.8,9.1,5,9.2
				c0.1,0,3.7-12.6,3.8-12.5c0.4,0.1,4.7,15.8,5.1,15.9c0.3,0.1,4.9-16.9,5.2-16.9c0.4,0.1-2.8,18.4-2.4,18.5
				c0.2,0.1,4.8-16.2,4.9-16.1c0.4,0.1-4.3,16.2-3.8,16.4c0.2,0.1,4.5-15.6,4.7-15.5c0.4,0.1,2.3,16.5,2.8,16.6
				c0.2,0.1,4.3-14.6,4.5-14.6c0.4,0.1,0.4,14.7,0.8,14.9c0.2,0.1,4.7-16.1,4.9-16c0.4,0.1-3.5,16.3-3.1,16.4
				c0.2,0.1,4.9-17.1,5.2-17c0.5,0.2-1.1,17.9-0.8,18c0.3,0.1,5.6-19.3,5.9-19.3c0.3,0.1,0.8,13.8,1.2,13.9
				c0.3,0.1,5.6-19.4,5.9-19.3c0.6,0.2-3.7,20.4-3.2,20.5c1.5,0.5,18.8-67.5,20.5-67"/>
			<path class="st1" d="M730.5,617c0.2,0.1,5-17,5.2-16.9c0.3,0.1,0.9,11.6,1.2,11.7c0,0,2.7-9,2.7-9"/>
			<path class="st1" d="M729.6,596.4c0.3,0.1,5.3-18.2,5.5-18.1c0.3,0.1-0.2,14.5,0,14.6c0.1,0,4-13.7,4.2-13.7
				c0.3,0.1-0.9,9.7-0.7,9.8c0,0,2.8-9.3,2.8-9.3"/>
			<path class="st1" d="M707.9,649.2c0.1,0,3-10,3.1-10c0.2,0.1-1,10.1-0.8,10.1c0.2,0.1,4.9-16.9,5.1-16.8c0.4,0.1-0.9,17-0.4,17.1
				c0.9,0.3,15-53.1,16.1-52.7c1.3,0.4-15.6,52.5-14.4,52.8c1.1,0.3,14.5-52.3,15.9-51.9c0.9,0.3-9.1,44.4-8,44.8
				c0.6,0.2,8.7-30.9,9.4-30.7c0.6,0.2-9.3,29.4-8.4,29.6c0.6,0.2,8.3-29.4,8.9-29.2c0.8,0.2-8.4,28.9-7.7,29.1
				c0.6,0.2,8.1-28.5,8.7-28.3c0.7,0.2-2.8,27.3-2.2,27.5c0.4,0.1,6.7-23,7-22.9c0.5,0.1-3.5,21.2-3.1,21.3c0.1,0,3.8-12.9,3.9-12.8
				c0.3,0.1-4.1,12.7-3.8,12.8c0.1,0,3.6-12.2,3.7-12.1"/>
			<path class="st1" d="M732.3,575.2c0.2,0.1,4.5-15.6,4.7-15.5c0.4,0.1-5,15.2-4.6,15.3c0.2,0.1,4.5-15.3,4.7-15.3
				c0.3,0.1-1.8,11.3-1.6,11.4c0,0,3-9.9,3-9.9"/>
			<path class="st1" d="M731.1,560.5c0.4,0.1,6.3-22.1,6.7-22c0.4,0.1-4.3,18-3.9,18.2c0.2,0.1,4.9-17,5.2-16.9"/>
			<path class="st1" d="M730.8,538.1c0.2,0.1,4.4-15.2,4.6-15.2c0.3,0.1-2.1,10.7-1.8,10.8c0.1,0,3.1-10.3,3.1-10.3"/>
			<path class="st1" d="M708.3,604.4c0.2,0.1,5.4-18.4,5.6-18.3c0.6,0.2-3.7,22.7-3.1,22.9c1.8,0.5,21-74.9,22.7-74.4
				c1.8,0.5-24.5,78.4-22.2,79.1c1.9,0.6,22.1-78.2,23.7-77.7c2.3,0.7-26.1,89.4-23.7,90.2c1.9,0.6,19.9-71.2,21.6-70.7
				c2.3,0.7-21.7,81.2-19.4,81.8c1.4,0.4,18.6-65.9,20-65.5"/>
			<path class="st1" d="M708.3,562.2c0,0,2.8-9.5,2.9-9.5c0.2,0.1-2.1,11.2-1.8,11.3c0.2,0.1,3.9-13.3,4-13.2
				c0.3,0.1-3.5,14.5-3.3,14.6c0.2,0.1,4.7-16,4.9-16c0.4,0.1-4,17.9-3.7,18.1c0.3,0.1,5.9-20.3,6.2-20.3c0.6,0.2-6.3,21-5.6,21.2
				c0.9,0.3,13.4-47.7,14.5-47.4c1.5,0.4-13.2,56-12,56.3c1.3,0.4,15.7-56.4,17.1-55.9c1.5,0.4-19.3,64.8-17.7,65.3
				c1.5,0.5,18.2-65,19.7-64.5"/>
			<path class="st1" d="M706.9,530.6c0,0,2.7-9,2.7-9c0.6,0.2,1,26.3,1.8,26.5c0.4,0.1,6.9-24.1,7.3-24c0.5,0.2-7.6,24.3-7,24.4
				c0.3,0.1,7-24.5,7.4-24.3c0.6,0.2-4.5,29-3.8,29.2c0.5,0.2,9.1-31.8,9.7-31.7"/>
			<path class="st1" d="M886.8,637.9c0,0,2.5-8.2,2.5-8.2c0.2,0.1,0.4,7.8,0.6,7.8c0,0,2.5-8.4,2.6-8.4"/>
			<path class="st1" d="M933.9,587.3c0.3,0.1,4.7-16.3,5-16.2c0.4,0.1-4.4,14.4-4,14.6c0.1,0,3.9-13,4-13"/>
			<path class="st1" d="M923.6,617.8c0.9,0.3,14.1-50.4,15.3-50c1.3,0.4-11.7,45.6-10.5,46c0.3,0.1,5.2-18,5.5-17.9
				c0.5,0.1-3.9,17-3.5,17.2c0.2,0.1,4.4-15.1,4.6-15c0.4,0.1-3.3,14.3-3,14.4c0.1,0,3.7-12.7,3.9-12.7c0.3,0.1-1.6,11.6-1.3,11.7
				c0,0,2.7-8.9,2.7-8.9"/>
			<path class="st1" d="M915.6,629.3c1.4,0.4,19.9-69.5,21.1-69.2c1.6,0.5-21.9,68.7-19.8,69.3c1.7,0.5,18.7-67.5,20.5-67
				c1.8,0.5-21.4,66.5-19.5,67.1c1.6,0.5,18.7-65.7,20-65.3c1.7,0.5-15.1,65.8-13.4,66.3c0,0,2.7-8.9,2.7-8.9"/>
			<path class="st1" d="M891.5,637.6c0,0,2.7-8.8,2.7-8.8c0.4,0.1,4.5,15.6,4.8,15.7c0.7,0.2,11.1-39.1,11.9-38.9
				c1,0.3-12.4,38.5-11.6,38.8c0.9,0.3,11.1-39.6,12-39.3c0.9,0.3-4.7,37.1-3.7,37.4c1.9,0.6,25.1-90,27.3-89.3
				c2.4,0.7-28.7,87.9-26.2,88.6c1.9,0.6,24.8-87.7,26.6-87.2c2.3,0.7-26.8,85.3-24.6,85.9c2.1,0.7,23.6-83.4,25.3-82.9
				c1.9,0.6-25.8,81.6-24,82.1c0.2,0.1,4.2-14.5,4.4-14.5"/>
			<path class="st1" d="M908.7,580.3c0.3,0.1,5.3-18.4,5.6-18.3c1.1,0.3-5.1,38-4.3,38.2c1,0.3,13.5-48.2,14.6-47.9
				c1.2,0.4-11.8,51.5-10.6,51.9c0.9,0.3,14.6-51.8,15.7-51.4"/>
			<path class="st1" d="M894.2,542.2c0,0,2.4-8,2.5-8c0.3,0.1,0.1,15.4,0.4,15.5c0.2,0.1,4.9-16.8,5.1-16.7c0.5,0.1,2,21.9,2.5,22
				c0.3,0.1,6.1-21.1,6.4-21c0.7,0.2-4.2,23.4-3.6,23.6c0.4,0.1,6.3-21.8,6.6-21.6c0.8,0.2-3.3,31.5-2.4,31.8
				c0.4,0.1,7.4-25.9,7.9-25.7"/>
			<path class="st1" d="M864,640.2c0,0,2.6-8.7,2.7-8.7c0.3,0.1-0.7,11-0.4,11c0.1,0,3.6-12.3,3.7-12.3c0.3,0.1,3.3,15.7,3.7,15.8
				c0.2,0.1,4.6-15.6,4.7-15.5c0.4,0.1-3.5,15.3-3.1,15.4c0.2,0.1,5.1-17.7,5.4-17.6c0.4,0.1-5.7,17.5-5.3,17.6
				c0.2,0.1,5.1-17.8,5.4-17.7c0.2,0.1,3.4,9.3,3.6,9.4c0,0,2.6-8.7,2.7-8.7c0.2,0.1-2.2,8.5-1.9,8.5c0,0,2.5-8.2,2.5-8.2"/>
			<path class="st1" d="M859,639.9c0,0,2.4-8,2.5-8c0.2,0-2,8.1-1.8,8.2c0,0,2.6-8.4,2.6-8.4c0.2,0.1,0,8.2,0.2,8.3
				c0,0,2.6-8.6,2.6-8.6"/>
			<path class="st1" d="M888.6,541.5c0,0,2.8-9.3,2.8-9.3c0.2,0.1,0.8,9.4,1,9.5c0,0,2.4-8,2.5-8"/>
			<path class="st1" d="M876,541.3c0,0,2.6-8.6,2.6-8.6c0.4,0.1,2,14.1,2.4,14.2c0.3,0.1,5.2-17.9,5.5-17.9
				c0.4,0.1,0.1,12.6,0.4,12.7c0,0,2.8-9.2,2.8-9.2"/>
			<path class="st1" d="M874.1,540.2c0,0,2.6-8.6,2.6-8.6c0.2,0.1-2.3,8.7-2.2,8.7c0,0,2.5-8.2,2.5-8.2"/>
			<path class="st1" d="M852.6,577.7c0.4,0.1,6.5-22.7,6.9-22.6c0.6,0.2-7.3,22.3-6.8,22.5c0.4,0.1,6.5-22.5,6.9-22.4
				c0.4,0.1-1.7,17.2-1.4,17.3c0.1,0,3.2-10.8,3.3-10.8"/>
			<path class="st1" d="M831.3,636c0.3,0.1,5.7-19.8,6-19.7c0.5,0.2,0.1,24.8,0.7,25c1.1,0.3,16.7-59.7,18.1-59.3
				c1.4,0.4-16.1,58.9-14.7,59.3c1,0.3,14-50.3,15.3-49.9c1,0.3-8.5,49.1-7.1,49.5c0.2,0.1,4.5-15.7,4.8-15.6
				c0.3,0.1-3.5,15.4-3.1,15.5c0.1,0,3.3-11.2,3.4-11.2c0.3,0.1-3.3,11.1-3,11.2c0.1,0,3.1-10.2,3.1-10.2c0.2,0.1,2.1,9.3,2.4,9.4
				c0,0,2.4-8,2.5-8"/>
			<path class="st1" d="M851.2,549.3c0.3,0.1,4.9-17,5.2-16.9c0.3,0.1,1.7,13.2,2,13.3c0.3,0.1,5.6-19.3,5.9-19.3
				c0.5,0.1-4.2,20.7-3.7,20.8c0.3,0.1,5.5-19.2,5.8-19.1c0.5,0.2-0.2,18.6,0.3,18.7c0.2,0.1,4.5-15.3,4.7-15.2
				c0.3,0.1,0.4,9.9,0.7,10c0,0,2.8-9.3,2.8-9.3"/>
			<path class="st1" d="M831.3,594c0,0,2.9-9.6,2.9-9.6c0.4,0.1-0.8,14-0.4,14.1c0.3,0.1,5.5-19.2,5.8-19.1
				c0.5,0.1-5.2,21.3-4.6,21.5c1.4,0.4,16.6-58.4,17.7-58.1c1.6,0.5-17.4,63.4-15.6,63.9c1.4,0.4,16-56.8,17.3-56.4
				c1.9,0.6-19.8,67.4-17.9,68c1.4,0.4,18.7-66.3,20.1-65.9"/>
			<path class="st1" d="M828.4,565.9c0.1,0,3.3-11.1,3.4-11.1c0.3,0.1-2.7,12.8-2.3,12.9c1,0.3,12-41.6,12.6-41.3
				c0.9,0.3-12.7,42.5-11.9,42.7c1,0.3,12.5-43.3,13.2-43.1c1,0.3-13,44.9-12,45.2c1,0.3,12.9-45.1,13.7-44.8
				c1.3,0.4-14.6,45.6-13.2,46c0.9,0.3,13-46.1,14-45.8c1.4,0.4-12.4,53.7-11.3,54c1.2,0.4,14.7-52.8,16-52.4
				c1.2,0.4-15,55.4-13.6,55.8c1.2,0.4,15.2-54.2,16.4-53.8c1.4,0.4-16.8,54.6-15.7,54.9c1.4,0.4,15.5-54.6,16.6-54.3"/>
			<path class="st1" d="M828.6,551.9c0.2,0.1,4.6-15.8,4.8-15.7c0.5,0.2-2.2,20.8-1.6,21c0.5,0.1,8.1-28.3,8.6-28.2"/>
			<path class="st1" d="M973.6,630.8c0.3,0.1,5.2-18,5.5-18c0.4,0.1-1.8,14.4-1.5,14.5c0.1,0,3.6-12.2,3.7-12.2
				c0.2,0.1-1.9,10.3-1.7,10.4c0,0,2.8-9.2,2.8-9.2"/>
			<path class="st1" d="M1016.4,589.6c1.6,0.5,17.2-61.6,18.7-61.1c1.2,0.4-19.4,60.2-17.8,60.7c1.2,0.4,17.1-59.9,18.2-59.6
				c1.2,0.4-10.7,56.4-9.6,56.8c1,0.3,13.9-49.6,15.1-49.2c1.2,0.4-6.4,49.3-5.2,49.7c0.8,0.2,10-35,10.6-34.8
				c0.7,0.2-6.4,29.6-5.8,29.8c0.2,0.1,5-17,5.2-16.9c0.3,0.1-3.8,14.9-3.4,15c0.1,0,3.8-13,4-13c0.3,0.1-3.1,11.6-2.8,11.7
				c0.1,0,3.1-10.3,3.2-10.3"/>
			<path class="st1" d="M975.9,536.9c0.1,0,3.3-11.2,3.4-11.2c0.3,0.1,5.5,10.3,5.8,10.4c0.2,0.1,4.1-14.1,4.3-14.1
				c0.5,0.2,1.2,17.8,1.6,17.9c0.3,0.1,5.2-17.7,5.4-17.7c0.4,0.1,1.2,19.8,1.8,20c0.3,0.1,5.8-20.3,6.2-20.2c0.5,0.1-0.4,21,0,21.1
				c0.4,0.1,6.2-21.5,6.6-21.5c0.5,0.2-1.9,24.3-1.2,24.6c0.4,0.1,6.1-20.9,6.4-20.8c0.6,0.2-0.5,20.4,0,20.5
				c0.2,0.1,4.8-16.5,5-16.4c0.3,0.1-2.2,15.8-1.9,15.9c0.3,0.1,5.6-19.3,5.9-19.2c0.5,0.2-2.8,26.8-2.1,27.1
				c0.5,0.2,8-27.6,8.4-27.5"/>
			<path class="st1" d="M980,592.4c0.3,0.1,5.5-19,5.8-18.9c0.4,0.1-1.9,19.5-1.5,19.7c0.2,0.1,5.4-18.7,5.7-18.7
				c0.5,0.2-0.9,19.5-0.4,19.6c0.2,0.1,4.2-14.6,4.4-14.5c0.4,0.1-1,14.4-0.7,14.5c0.3,0.1,5.1-17.4,5.3-17.4
				c0.4,0.1-3.2,17.1-2.8,17.2c0.3,0.1,5.8-20,6.1-19.9c0.5,0.1-1.9,23.5-1.2,23.7c0.4,0.1,6-20.7,6.3-20.6c0.7,0.2-6,26.9-5.4,27.1
				c0.4,0.1,7.4-25.8,7.8-25.6c0.9,0.3-4.3,38.2-3.2,38.5c2.4,0.7,25.6-90.2,27.4-89.7c2.4,0.7-26,93.8-23.3,94.7
				c0.8,0.2,10.2-36.4,11-36.1c1,0.3-3.5,41.2-2.3,41.5c0.6,0.2,9.5-33.5,10.2-33.2c1,0.3-8.7,46.2-7.4,46.6
				c0.8,0.2,10.6-37.5,11.4-37.3c1,0.3-6.4,38.3-5.3,38.6c0.7,0.2,10.9-38,11.6-37.8c1.1,0.3-7.9,45.6-6.7,45.9
				c0.7,0.2,9.8-34.8,10.6-34.5c0.7,0.2-1.2,29.1-0.4,29.4c0.4,0.1,6.9-24,7.3-23.9c0.6,0.2,1.6,23.6,2.2,23.8c0,0,2.4-8,2.4-8
				c0.2,0-2,8-1.8,8.1c0,0,2.4-7.8,2.4-7.8"/>
			<path class="st1" d="M975.4,601.9c0.5,0.2,7.8-27.2,8.3-27.1c0.6,0.2-6.6,23.8-6,23.9c0.1,0,3.8-13,3.9-12.9"/>
			<path class="st1" d="M975.8,584.7c0.3,0.1,5.2-18.1,5.5-18c0.5,0.1-5.8,17.7-5.4,17.8c0.3,0.1,5.2-17.9,5.4-17.8
				c0.3,0.1-1.2,11.5-1,11.6c0.1,0,3-10,3.1-10"/>
			<path class="st1" d="M949.6,640.7c0.1,0,3.1-10.4,3.2-10.4c0.4,0.1,1.9,19.4,2.3,19.5c1.6,0.5,23.5-84.3,25.6-83.7
				c2,0.6-24.2,83.1-22.2,83.7c1.6,0.5,20.5-74,22.4-73.4c1.3,0.4-14.1,65.5-12.1,66c0.6,0.2,8.7-30.9,9.4-30.7
				c0.6,0.2-8.5,30.3-7.7,30.6c0.1,0,3.5-11.9,3.6-11.8c0.3,0.1-3.5,12-3.3,12c0.1,0,3.4-11.3,3.5-11.3c0.4,0.1,3,15.8,3.5,16
				c0,0,2.6-8.6,2.6-8.6c0.3,0.1-1.7,9.2-1.5,9.3c0,0,2.5-8.1,2.5-8.1c0.2,0.1-2.1,8.4-1.9,8.5c0,0,2.4-7.9,2.4-7.9"/>
			<path class="st1" d="M973.6,560.5c0.3,0.1,5.3-18.5,5.6-18.4c0.3,0.1,0,12.9,0.4,13c0,0,2.8-9.3,2.8-9.3"/>
			<path class="st1" d="M949.6,612.7c0.1,0,3.2-10.6,3.2-10.6c0.4,0.1-1.7,16.7-1.3,16.9c0.4,0.1,6.2-21.4,6.5-21.3
				c0.5,0.2-5.6,22.4-5,22.6c2,0.6,22.8-80.5,24.4-79.9c2.1,0.6-23.6,81.8-21.3,82.5c1.6,0.5,17.2-61.2,18.6-60.8
				c1.9,0.6-17.8,67.1-15.9,67.7c1.3,0.4,18.4-65.3,19.8-64.9"/>
			<path class="st1" d="M952.2,569.3c0.2,0.1,5.4-18.4,5.6-18.3c0.4,0.1-5.1,20.1-4.6,20.3c1.1,0.3,12.9-44.9,13.6-44.6
				c1,0.3-13.8,45.8-12.9,46.1c1.1,0.3,13-45.3,13.8-45.1c1.1,0.3-13.6,47-12.6,47.3c1,0.3,13.2-46,14-45.7
				c1.3,0.4-15.3,47.8-13.9,48.2c0.9,0.3,13.5-47.8,14.5-47.5c1.7,0.5-15.7,63.5-14.3,63.9c1.5,0.5,18.4-66.3,20.1-65.8
				c1.6,0.5-20.5,71.8-18.7,72.4c1.5,0.5,18.5-65.9,20-65.4c1.7,0.5-20.8,66.9-19.4,67.3c1.6,0.5,17.9-63.4,19.3-63"/>
			<path class="st1" d="M955.8,535.3c0,0,2.8-9.2,2.8-9.2c0.6,0.2-1.6,25.3-0.9,25.5c0.4,0.1,7.6-26.4,8-26.3"/>
			<path class="st1" d="M1159.6,590.7c0,0,2.6-8.5,2.6-8.5c0.3,0.1-0.4,10.2-0.2,10.2c0.1,0,3.4-11.7,3.6-11.6
				c0.3,0.1-0.7,13.8-0.4,13.9c0,0,2.6-8.4,2.6-8.4"/>
			<path class="st1" d="M1155.2,590.7c0,0,2.5-8.3,2.5-8.3c0.2,0.1-2,8.3-1.8,8.4c0,0,2.7-8.9,2.7-8.9c0.2,0.1-0.9,8.7-0.8,8.7
				c0,0,2.6-8.5,2.6-8.5"/>
			<path class="st1" d="M1119.1,627.8c0.3,0.1,6-20.7,6.3-20.6c0.4,0.1-5.2,18-4.7,18.1c0.3,0.1,5.1-17.5,5.3-17.4"/>
			<path class="st1" d="M1112.7,630.9c0.1,0,3.1-10.2,3.1-10.2c0.4,0.1,1.6,15.4,2,15.5c0.1,0,3.3-11.3,3.5-11.3
				c0.4,0.1,0.5,13.9,0.9,14c0,0,2.5-8.1,2.5-8.1"/>
			<path class="st1" d="M1124.8,596.3c0.3,0.1,5.5-18.8,5.7-18.7c0.3,0.1-1.2,17.6-0.9,17.7c0.2,0.1,4.8-16.6,5.1-16.5
				c0.5,0.2-0.7,18.9-0.2,19.1c0.3,0.1,5-17.5,5.3-17.4c0.4,0.1-1.6,16.1-1.2,16.2c0.2,0.1,4.4-14.9,4.5-14.9
				c0.3,0.1-1.9,13.3-1.6,13.4c0.1,0,3.8-12.8,3.9-12.7c0.2,0.1,2.3,11,2.6,11.1c0.1,0,3.3-11.1,3.4-11.1c0.2,0.1-0.3,9.8-0.1,9.8
				c0,0,2.9-9.7,3-9.7c0.2,0.1-1.1,8.3-0.9,8.4c0,0,2.5-8.3,2.5-8.3"/>
			<path class="st1" d="M1118.5,606.6c0.5,0.2,8-28,8.5-27.8c0.6,0.2-6.1,23.8-5.6,24c0.4,0.1,7.1-24.8,7.5-24.7"/>
			<path class="st1" d="M1104.9,591.9c0,0,2.4-7.8,2.4-7.8C1107.5,584.2,1104.8,591.9,1104.9,591.9c0.1,0,2.5-7.8,2.5-7.8
				c0.2,0.1,1.1,9.1,1.3,9.2c0.2,0.1,4.9-16.6,5.1-16.6c0.7,0.2-1,33.5-0.2,33.8c0.5,0.1,8.7-30.4,9.2-30.2c0.8,0.3-6.7,40.7-5.7,41
				c0.3,0.1,5-17.4,5.3-17.3"/>
			<path class="st1" d="M1118.7,556.9c0.4,0.1,6.5-22.9,7-22.7c0.4,0.1-2.7,17.7-2.3,17.8c0.1,0,3.2-10.6,3.2-10.6"/>
			<path class="st1" d="M1117,547.2c0.1,0,2.9-9.7,2.9-9.6c0.3,0.1-2.5,11.9-2.2,12c0.1,0,3.9-13.3,4.1-13.3"/>
			<path class="st1" d="M1109.6,561.8c0.1,0,3.7-12.4,3.8-12.3c0.6,0.2-3.7,22.7-3.1,22.9c0.5,0.2,8-27.9,8.5-27.7
				c0.7,0.2-7.9,29.2-7.1,29.5c0.9,0.3,11.3-39.5,12-39.3c1.1,0.3-10.2,42.1-9.1,42.4c0.4,0.1,6.2-21.6,6.6-21.5
				c0.7,0.2-5.3,23.4-4.6,23.6c0.2,0.1,5.1-17.6,5.4-17.5"/>
			<path class="st1" d="M1099.3,591.2c0,0,2.6-8.7,2.7-8.7c0.2,0.1-1.3,8.8-1.1,8.9c0,0,2.5-8.3,2.5-8.3c0.2,0.1-1.6,8.4-1.4,8.4
				c0,0,2.5-8.1,2.5-8.1c0.2,0.1-1.7,8.1-1.6,8.1c0,0,2.4-7.8,2.4-7.8"/>
			<path class="st1" d="M1069.9,594.9c0.1,0,3.6-12,3.7-12c0.3,0.1,5.4,13.3,5.8,13.4c0.1,0,4.2-14.2,4.3-14.2
				c0.3,0.1-4.2,14.1-3.9,14.2c0.1,0,4.2-14.2,4.3-14.2c0.3,0.1,5.2,15.1,5.6,15.2c0.3,0.1,5.7-19.6,6-19.5
				c0.5,0.1-1.6,17.2-1.2,17.3c0.1,0,4.2-14.4,4.4-14.3c0.3,0.1-1.5,10.9-1.3,11c0,0,2.9-9.5,2.9-9.5"/>
		</g>
	</g>
	<g>
		<path class="st2" d="M196.3,525.1v127.8h-28.8V525.1h-48.4v-7.2h125.3v7.2H196.3z"/>
		<path class="st2" d="M335.2,585.9c0,24.6-14.7,38.8-40.4,38.8c-25.6,0-40.6-14.4-40.6-39c0-23.5,15.7-38.3,40.6-38.3
			C319.5,547.4,335.2,562.4,335.2,585.9z M271.6,585.8c0,20.9,9.3,34.9,23.2,34.9c14,0,23-13.7,23-34.9c0-20.1-9.6-34.4-23-34.4
			C281,551.4,271.6,565.4,271.6,585.8z"/>
		<path class="st2" d="M424.9,595.7c0,9.5-0.7,14.3-3,19.6c-5,11.4-15.6,17-32.3,17c-17.6,0-29.4-4.6-35.5-14
			c-4-6-4.9-10.4-4.9-22.9v-54.5h18.5v54.4c0,7.4,0.4,10.8,1.7,14.9c3.4,10.8,12.1,17.2,23.5,17.2c13.1,0,22.3-7,25.2-19
			c0.7-3,1.1-7.1,1.1-12.6v-54.8h5.8V595.7z"/>
		<path class="st2" d="M505.7,634.5l-29.1-48.4h-13.4v48.4h-20V537h44.2c7.3,0,13.3,0.5,17,1.6c12,3,19,11.6,19,23.3
			c0,11.6-7.1,20.2-19,23.1c-2.2,0.5-4.8,0.8-6.5,0.8l32.6,48.8H505.7z M476.2,580.9c7.3,0,10.3-0.3,13-0.9
			c8.3-2.3,13.3-9.1,13.3-18.3c0-10.3-5.1-16.8-14.2-18.7c-2.6-0.5-6.9-0.8-11.8-0.8h-13.3v38.7H476.2z"/>
		<path class="st2" d="M603.9,611.9c-3.9,5.7-9,8.3-16.4,8.3c-14.9,0-23.6-9.3-23.6-25.2c0-15.9,8.9-25.6,23.8-25.6
			c7.4,0,12.9,3,16.2,8.8v-29.5H617v71.1h-13.1V611.9z M577.4,594.9c0,13,5.2,21.3,13.2,21.3c7.6,0,13.2-9.3,13.2-21.5
			c0-12.4-5.7-21.8-13.1-21.8C582.7,573,577.4,581.7,577.4,594.9z"/>
		<path class="st2" d="M639.1,593.9c0,11,5.9,18.7,14.5,18.7c5.9,0,10.7-2.2,15.4-6.9l2.2,2.2c-5.5,5.8-12.2,8.7-20,8.7
			c-15.5,0-23.9-7.9-23.9-22.6c0-13.8,9-22.6,23-22.6c7.6,0,13.9,2.5,17.8,7c3.2,3.8,4.6,7.9,4.8,14.2h-33.8V593.9z M660.3,589.5
			c-0.2-9.1-4.1-14.9-10.1-14.9c-6.2,0-10.3,5.5-10.9,14.9H660.3z"/>
		<path class="st2" d="M790.8,641.9v-55.6h-56.2v55.6h-23.1V529.4h23.1v50.8h56.2v-50.8h23.1v112.5H790.8z"/>
		<path class="st2" d="M877.1,533.2c12.9,0,23.9,2.4,32.8,7c17.1,9,26.6,25.6,26.6,46.1c0,21.8-8.1,37.4-24.1,45.6
			c-8.3,4.2-19.3,6.3-34.2,6.3h-44v-105H877.1z M875.3,632.6c10.8,0,18.6-2.4,24.2-7.6c9-8.1,13.2-20.3,13.2-38.6
			c0-32.2-12-47.6-37.2-47.6h-19.3v93.8H875.3z"/>
		<path class="st2" d="M1027.4,641.9l-33.6-55.8h-15.4v55.8h-23.1V529.4h51c8.4,0,15.3,0.6,19.6,1.8c13.8,3.5,21.9,13.3,21.9,26.8
			c0,13.3-8.2,23.2-21.9,26.7c-2.5,0.6-5.5,0.9-7.5,0.9l37.6,56.2H1027.4z M993.4,580.1c8.4,0,11.8-0.3,15-1
			c9.6-2.7,15.3-10.5,15.3-21.1c0-11.8-5.8-19.3-16.3-21.6c-3-0.6-7.9-0.9-13.6-0.9h-15.3v44.7H993.4z"/>
		<path class="st2" d="M1115.1,633.7v-43.8h-43.8v-6.4h43.8v-43.8h6.7v43.8h43.8v6.4h-43.8v43.8H1115.1z"/>
	</g>
</g>
<g>
</g>
<g>
</g>
<g>
</g>
<g>
</g>
<g>
</g>
<g>
</g>
<g>
</g>
<g>
</g>
<g>
</g>
<g>
</g>
<g>
</g>
<g>
</g>
<g>
</g>
<g>
</g>
<g>
</g>
</svg>
