<?xml version="1.0" encoding="utf-8"?>
<!-- Generator: Adobe Illustrator 22.0.1, SVG Export Plug-In . SVG Version: 6.00 Build 0)  -->
<svg version="1.1" id="レイヤー_1" xmlns="http://www.w3.org/2000/svg" xmlns:xlink="http://www.w3.org/1999/xlink" x="0px"
	 y="0px" viewBox="0 0 1024 768" style="enable-background:new 0 0 1024 768;" xml:space="preserve">
<style type="text/css">
	.st0{fill:none;}
	.st1{fill:none;stroke:#ffffff;stroke-width:4;stroke-miterlimit:10;}
</style>
<g>
	<rect x="43" y="318.5" class="st0" width="938" height="131"/>
	<path class="st1" d="M97.5,337.5v85.2H78.3v-85.2H46v-4.8h83.5v4.8H97.5z"/>
	<path class="st1" d="M236.2,377.5c0,29.5-17.6,46.6-48.5,46.6c-30.7,0-48.7-17.3-48.7-46.8c0-28.2,18.8-46,48.7-46
		C217.4,331.3,236.2,349.3,236.2,377.5z M159.9,377.4c0,25.1,11.2,41.9,27.8,41.9c16.8,0,27.6-16.4,27.6-41.9
		c0-24.1-11.5-41.3-27.6-41.3C171.2,336.1,159.9,352.9,159.9,377.4z"/>
	<path class="st1" d="M326.9,387.5c0,9.5-0.7,14.3-3,19.6c-5,11.4-15.6,17-32.3,17c-17.6,0-29.4-4.6-35.5-14c-4-6-4.9-10.4-4.9-22.9
		v-54.5h18.5V387c0,7.4,0.4,10.8,1.7,14.9c3.4,10.8,12.1,17.2,23.5,17.2c13.1,0,22.3-7,25.2-19c0.7-3,1.1-7.1,1.1-12.6v-54.8h5.8
		V387.5z"/>
	<path class="st1" d="M402.2,422.7L375.3,378h-12.4v44.6h-18.5v-90h40.8c6.7,0,12.2,0.5,15.7,1.4c11,2.8,17.5,10.7,17.5,21.5
		c0,10.7-6.6,18.6-17.5,21.4c-2,0.5-4.4,0.7-6,0.7l30.1,45H402.2z M374.9,373.2c6.7,0,9.5-0.2,12-0.8c7.7-2.2,12.2-8.4,12.2-16.9
		c0-9.5-4.7-15.5-13.1-17.3c-2.4-0.5-6.4-0.7-10.9-0.7h-12.2v35.8H374.9z"/>
	<path class="st1" d="M483.5,412.1c-5.2,7.6-12,11-21.8,11c-19.9,0-31.4-12.4-31.4-33.6s11.9-34.1,31.7-34.1c9.8,0,17.2,4,21.6,11.8
		v-39.4H501v94.8h-17.5V412.1z M448.2,389.5c0,17.3,7,28.4,17.6,28.4c10.1,0,17.6-12.4,17.6-28.7c0-16.6-7.6-29-17.5-29
		C455.3,360.3,448.2,371.9,448.2,389.5z"/>
	<path class="st1" d="M533,389.3c0,16.6,8.9,28.1,21.7,28.1c8.9,0,16.1-3.2,23.2-10.3l3.2,3.2c-8.3,8.6-18.2,13.1-30,13.1
		c-23.3,0-35.9-11.9-35.9-34c0-20.6,13.4-33.8,34.6-33.8c11.4,0,20.9,3.7,26.8,10.6c4.8,5.6,7,11.9,7.2,21.4H533V389.3z
		 M564.8,382.7c-0.2-13.7-6.1-22.3-15.1-22.3c-9.4,0-15.5,8.3-16.3,22.3H564.8z"/>
	<path class="st1" d="M661,422.7v-44.5h-45v44.5h-18.5v-90H616v40.7h45v-40.7h18.5v90H661z"/>
	<path class="st1" d="M733.1,332.7c11,0,20.5,2,28.1,6c14.6,7.7,22.8,22,22.8,39.5c0,18.7-7,32-20.6,39.1
		c-7.1,3.6-16.6,5.4-29.3,5.4h-37.7v-90H733.1z M731.6,417.9c9.2,0,16-2,20.8-6.5c7.7-7,11.3-17.4,11.3-33.1
		c0-27.6-10.3-40.8-31.9-40.8h-16.6v80.4H731.6z"/>
	<path class="st1" d="M857.2,422.7L830.3,378H818v44.6h-18.5v-90h40.8c6.7,0,12.2,0.5,15.7,1.4c11,2.8,17.5,10.7,17.5,21.5
		c0,10.7-6.6,18.6-17.5,21.4c-2,0.5-4.4,0.7-6,0.7l30.1,45H857.2z M830,373.2c6.7,0,9.5-0.2,12-0.8c7.7-2.2,12.2-8.4,12.2-16.9
		c0-9.5-4.7-15.5-13.1-17.3c-2.4-0.5-6.4-0.7-10.9-0.7H818v35.8H830z"/>
	<path class="st1" d="M924.3,413.8v-32.9h-32.9v-4.8h32.9v-32.9h5v32.9h32.9v4.8h-32.9v32.9H924.3z"/>
</g>
<g>
</g>
<g>
</g>
<g>
</g>
<g>
</g>
<g>
</g>
<g>
</g>
<g>
</g>
<g>
</g>
<g>
</g>
<g>
</g>
<g>
</g>
<g>
</g>
<g>
</g>
<g>
</g>
<g>
</g>
</svg>
